<?xml version="1.0" encoding="utf-8"?>
<!-- Generated by Mocodo 4.2.1 -->
<svg width="758" height="339" viewBox="0 0 758 339" xmlns="http://www.w3.org/2000/svg">
<rect x="0" y="0" width="758" height="339" fill="#f7f7f7" stroke="none" stroke-width="0"/>

<!-- Association S_AUTHENTIFIE -->
<g>
	<line x1="54" y1="60" x2="185" y2="60" stroke="#4393c3" stroke-width="2"/>
	<line x1="323" y1="60" x2="185" y2="60" stroke="#4393c3" stroke-width="2"/>
	<g>
		<path d="M225 35 a14 14 90 0 1 14 14 V60 h-108 V49 a14 14 90 0 1 14 -14" fill="#92c5de" stroke="#92c5de" stroke-width="0"/>
		<path d="M239 60 v11 a14 14 90 0 1 -14 14 H145 a14 14 90 0 1 -14 -14 V60 H108" fill="#d1e5f0" stroke="#d1e5f0" stroke-width="0"/>
		<rect x="131" y="35" width="108" height="50" fill="none" rx="14" stroke="#4393c3" stroke-width="2"/>
		<line x1="131" y1="60" x2="239" y2="60" stroke="#4393c3" stroke-width="1"/>
		<text x="138" y="52.75" fill="#000000" font-family="Verdana" font-size="12">S’AUTHENTIFIE</text>
	</g>
	<text x="104" y="77" fill="#b2182b" font-family="Verdana" font-size="12">1,1</text>
	<line x1="104" y1="79" x2="125" y2="79" stroke="#b2182b" stroke-width="1"/>
	<text x="245" y="77" fill="#b2182b" font-family="Verdana" font-size="12">1,1</text>
</g>

<!-- Association AIME_FILM -->
<g>
	<line x1="570" y1="178" x2="454" y2="60" stroke="#4393c3" stroke-width="2"/>
	<line x1="323" y1="60" x2="454" y2="60" stroke="#4393c3" stroke-width="2"/>
	<g>
		<path d="M481 35 a14 14 90 0 1 14 14 V60 h-82 V49 a14 14 90 0 1 14 -14" fill="#92c5de" stroke="#92c5de" stroke-width="0"/>
		<path d="M495 60 v11 a14 14 90 0 1 -14 14 H427 a14 14 90 0 1 -14 -14 V60 H82" fill="#d1e5f0" stroke="#d1e5f0" stroke-width="0"/>
		<rect x="413" y="35" width="82" height="50" fill="none" rx="14" stroke="#4393c3" stroke-width="2"/>
		<line x1="413" y1="60" x2="495" y2="60" stroke="#4393c3" stroke-width="1"/>
		<text x="420" y="52.75" fill="#000000" font-family="Verdana" font-size="12">AIME_FILM</text>
	</g>
	<text x="503" y="147.32" fill="#b2182b" font-family="Verdana" font-size="12">0,N</text>
	<text x="380" y="52" fill="#b2182b" font-family="Verdana" font-size="12">0,N</text>
</g>

<!-- Association JOUE_DANS -->
<g>
	<line x1="570" y1="178" x2="570" y2="60" stroke="#4393c3" stroke-width="2"/>
	<line x1="697" y1="60" x2="570" y2="60" stroke="#4393c3" stroke-width="2"/>
	<g>
		<path d="M599 35 a14 14 90 0 1 14 14 V60 h-86 V49 a14 14 90 0 1 14 -14" fill="#92c5de" stroke="#92c5de" stroke-width="0"/>
		<path d="M613 60 v11 a14 14 90 0 1 -14 14 H541 a14 14 90 0 1 -14 -14 V60 H86" fill="#d1e5f0" stroke="#d1e5f0" stroke-width="0"/>
		<rect x="527" y="35" width="86" height="50" fill="none" rx="14" stroke="#4393c3" stroke-width="2"/>
		<line x1="527" y1="60" x2="613" y2="60" stroke="#4393c3" stroke-width="1"/>
		<text x="535" y="52.75" fill="#000000" font-family="Verdana" font-size="12">JOUE DANS</text>
		<text x="534" y="77.8" fill="#000000" font-family="Verdana" font-size="12">role</text>
	</g>
	<text x="575" y="102" fill="#b2182b" font-family="Verdana" font-size="12">0,N</text>
	<text x="618" y="77" fill="#b2182b" font-family="Verdana" font-size="12">1,N</text>
</g>

<!-- Association POSSEDE_ROLE -->
<g>
	<line x1="323" y1="279" x2="323" y2="178" stroke="#4393c3" stroke-width="2"/>
	<line x1="323" y1="60" x2="323" y2="178" stroke="#4393c3" stroke-width="2"/>
	<g>
		<path d="M365 153 a14 14 90 0 1 14 14 V178 h-112 V167 a14 14 90 0 1 14 -14" fill="#92c5de" stroke="#92c5de" stroke-width="0"/>
		<path d="M379 178 v11 a14 14 90 0 1 -14 14 H281 a14 14 90 0 1 -14 -14 V178 H112" fill="#d1e5f0" stroke="#d1e5f0" stroke-width="0"/>
		<rect x="267" y="153" width="112" height="50" fill="none" rx="14" stroke="#4393c3" stroke-width="2"/>
		<line x1="267" y1="178" x2="379" y2="178" stroke="#4393c3" stroke-width="1"/>
		<text x="274" y="170.75" fill="#000000" font-family="Verdana" font-size="12">POSSEDE_ROLE</text>
	</g>
	<text x="328" y="237" fill="#b2182b" font-family="Verdana" font-size="12">0,N</text>
	<text x="296" y="128" fill="#b2182b" font-family="Verdana" font-size="12">1,N</text>
</g>

<!-- Association NOTE_FILM -->
<g>
	<line x1="570" y1="178" x2="454" y2="178" stroke="#4393c3" stroke-width="2"/>
	<line x1="323" y1="60" x2="454" y2="178" stroke="#4393c3" stroke-width="2"/>
	<g>
		<path d="M483 153 a14 14 90 0 1 14 14 V178 h-86 V167 a14 14 90 0 1 14 -14" fill="#92c5de" stroke="#92c5de" stroke-width="0"/>
		<path d="M497 178 v11 a14 14 90 0 1 -14 14 H425 a14 14 90 0 1 -14 -14 V178 H86" fill="#d1e5f0" stroke="#d1e5f0" stroke-width="0"/>
		<rect x="411" y="153" width="86" height="50" fill="none" rx="14" stroke="#4393c3" stroke-width="2"/>
		<line x1="411" y1="178" x2="497" y2="178" stroke="#4393c3" stroke-width="1"/>
		<text x="419" y="170.75" fill="#000000" font-family="Verdana" font-size="12">NOTE_FILM</text>
		<text x="418" y="195.8" fill="#000000" font-family="Verdana" font-size="12">note</text>
	</g>
	<text x="503" y="195" fill="#b2182b" font-family="Verdana" font-size="12">0,N</text>
	<text x="380" y="105.39" fill="#b2182b" font-family="Verdana" font-size="12">0,N</text>
</g>

<!-- Association REALISE_FILM -->
<g>
	<line x1="570" y1="178" x2="697" y2="178" stroke="#4393c3" stroke-width="2"/>
	<line x1="697" y1="279" x2="697" y2="178" stroke="#4393c3" stroke-width="2"/>
	<g>
		<path d="M735 153 a14 14 90 0 1 14 14 V178 h-104 V167 a14 14 90 0 1 14 -14" fill="#92c5de" stroke="#92c5de" stroke-width="0"/>
		<path d="M749 178 v11 a14 14 90 0 1 -14 14 H659 a14 14 90 0 1 -14 -14 V178 H104" fill="#d1e5f0" stroke="#d1e5f0" stroke-width="0"/>
		<rect x="645" y="153" width="104" height="50" fill="none" rx="14" stroke="#4393c3" stroke-width="2"/>
		<line x1="645" y1="178" x2="749" y2="178" stroke="#4393c3" stroke-width="1"/>
		<text x="653" y="170.75" fill="#000000" font-family="Verdana" font-size="12">REALISE_FILM</text>
	</g>
	<text x="615" y="195" fill="#b2182b" font-family="Verdana" font-size="12">0,N</text>
	<text x="702" y="220" fill="#b2182b" font-family="Verdana" font-size="12">1,N</text>
</g>

<!-- Entity LOGIN -->
<g>
	<g>
		<rect x="9" y="18" width="90" height="25" fill="#f4a582" stroke="none" stroke-width="0" opacity="1"/>
		<rect x="9" y="43" width="90" height="59" fill="#fddbc7" stroke="none" stroke-width="0" opacity="1"/>
		<rect x="9" y="18" width="90" height="84" fill="none" stroke="#d6604d" stroke-width="2" opacity="1"/>
		<line x1="9" y1="43" x2="99" y2="43" stroke="#d6604d" stroke-width="1"/>
	</g>
	<text x="34" y="35.75" fill="#000000" font-family="Verdana" font-size="12">LOGIN</text>
	<text x="14" y="60.8" fill="#000000" font-family="Verdana" font-size="12">email</text>
	<text x="14" y="77.8" fill="#000000" font-family="Verdana" font-size="12">pass</text>
	<text x="14" y="94.8" fill="#000000" font-family="Verdana" font-size="12">last_updated</text>
</g>

<!-- Entity UTILISATEUR -->
<g>
	<g>
		<rect x="271" y="9" width="104" height="25" fill="#f4a582" stroke="none" stroke-width="0" opacity="1"/>
		<rect x="271" y="34" width="104" height="77" fill="#fddbc7" stroke="none" stroke-width="0" opacity="1"/>
		<rect x="271" y="9" width="104" height="102" fill="none" stroke="#d6604d" stroke-width="2" opacity="1"/>
		<line x1="271" y1="34" x2="375" y2="34" stroke="#d6604d" stroke-width="1"/>
	</g>
	<text x="282" y="26.75" fill="#000000" font-family="Verdana" font-size="12">UTILISATEUR</text>
	<text x="276" y="51.8" fill="#000000" font-family="Verdana" font-size="12">id</text>
	<line x1="276" y1="54" x2="288" y2="54" stroke="#000000" stroke-width="1"/>
	<text x="276" y="68.8" fill="#000000" font-family="Verdana" font-size="12">nom</text>
	<text x="276" y="85.8" fill="#000000" font-family="Verdana" font-size="12">prenom</text>
	<text x="276" y="102.8" fill="#000000" font-family="Verdana" font-size="12">date_naissance</text>
</g>

<!-- Entity ACTEUR -->
<g>
	<g>
		<rect x="645" y="9" width="104" height="25" fill="#f4a582" stroke="none" stroke-width="0" opacity="1"/>
		<rect x="645" y="34" width="104" height="77" fill="#fddbc7" stroke="none" stroke-width="0" opacity="1"/>
		<rect x="645" y="9" width="104" height="102" fill="none" stroke="#d6604d" stroke-width="2" opacity="1"/>
		<line x1="645" y1="34" x2="749" y2="34" stroke="#d6604d" stroke-width="1"/>
	</g>
	<text x="672" y="26.75" fill="#000000" font-family="Verdana" font-size="12">ACTEUR</text>
	<text x="650" y="51.8" fill="#000000" font-family="Verdana" font-size="12">id</text>
	<line x1="650" y1="54" x2="662" y2="54" stroke="#000000" stroke-width="1"/>
	<text x="650" y="68.8" fill="#000000" font-family="Verdana" font-size="12">nom</text>
	<text x="650" y="85.8" fill="#000000" font-family="Verdana" font-size="12">prenom</text>
	<text x="650" y="102.8" fill="#000000" font-family="Verdana" font-size="12">date_naissance</text>
</g>

<!-- Entity FILM -->
<g>
	<g>
		<rect x="530" y="110" width="80" height="25" fill="#f4a582" stroke="none" stroke-width="0" opacity="1"/>
		<rect x="530" y="135" width="80" height="111" fill="#fddbc7" stroke="none" stroke-width="0" opacity="1"/>
		<rect x="530" y="110" width="80" height="136" fill="none" stroke="#d6604d" stroke-width="2" opacity="1"/>
		<line x1="530" y1="135" x2="610" y2="135" stroke="#d6604d" stroke-width="1"/>
	</g>
	<text x="555" y="127.75" fill="#000000" font-family="Verdana" font-size="12">FILM</text>
	<text x="535" y="152.8" fill="#000000" font-family="Verdana" font-size="12">id</text>
	<line x1="535" y1="155" x2="547" y2="155" stroke="#000000" stroke-width="1"/>
	<text x="535" y="169.8" fill="#000000" font-family="Verdana" font-size="12">nom</text>
	<text x="535" y="186.8" fill="#000000" font-family="Verdana" font-size="12">synopsis</text>
	<text x="535" y="203.8" fill="#000000" font-family="Verdana" font-size="12">date_sortie</text>
	<text x="535" y="220.8" fill="#000000" font-family="Verdana" font-size="12">duree</text>
	<text x="535" y="237.8" fill="#000000" font-family="Verdana" font-size="12">etiquettes</text>
</g>

<!-- Entity ROLE_UTILISATEUR -->
<g>
	<g>
		<rect x="257" y="245" width="132" height="25" fill="#f4a582" stroke="none" stroke-width="0" opacity="1"/>
		<rect x="257" y="270" width="132" height="43" fill="#fddbc7" stroke="none" stroke-width="0" opacity="1"/>
		<rect x="257" y="245" width="132" height="68" fill="none" stroke="#d6604d" stroke-width="2" opacity="1"/>
		<line x1="257" y1="270" x2="389" y2="270" stroke="#d6604d" stroke-width="1"/>
	</g>
	<text x="262" y="262.75" fill="#000000" font-family="Verdana" font-size="12">ROLE_UTILISATEUR</text>
	<text x="262" y="287.8" fill="#000000" font-family="Verdana" font-size="12">id</text>
	<line x1="262" y1="290" x2="274" y2="290" stroke="#000000" stroke-width="1"/>
	<text x="262" y="304.8" fill="#000000" font-family="Verdana" font-size="12">nom</text>
</g>

<!-- Entity REALISATEUR -->
<g>
	<g>
		<rect x="645" y="228" width="104" height="25" fill="#f4a582" stroke="none" stroke-width="0" opacity="1"/>
		<rect x="645" y="253" width="104" height="77" fill="#fddbc7" stroke="none" stroke-width="0" opacity="1"/>
		<rect x="645" y="228" width="104" height="102" fill="none" stroke="#d6604d" stroke-width="2" opacity="1"/>
		<line x1="645" y1="253" x2="749" y2="253" stroke="#d6604d" stroke-width="1"/>
	</g>
	<text x="655" y="245.75" fill="#000000" font-family="Verdana" font-size="12">REALISATEUR</text>
	<text x="650" y="270.8" fill="#000000" font-family="Verdana" font-size="12">id</text>
	<line x1="650" y1="273" x2="662" y2="273" stroke="#000000" stroke-width="1"/>
	<text x="650" y="287.8" fill="#000000" font-family="Verdana" font-size="12">nom</text>
	<text x="650" y="304.8" fill="#000000" font-family="Verdana" font-size="12">prenom</text>
	<text x="650" y="321.8" fill="#000000" font-family="Verdana" font-size="12">date_naissance</text>
</g>
</svg>